<svg xmlns="http://www.w3.org/2000/svg" viewBox="0 0 326.58 314.03"><defs><style>.cls-1{fill:#fff;stroke:#231f20;}.cls-1,.cls-5{stroke-miterlimit:10;}.cls-2{fill:#0d1138;}.cls-3{fill:#a5cccc;}.cls-4,.cls-5{fill:#c3e0ad;}.cls-5{stroke:#fff200;}.cls-6{fill:none;}</style></defs><title>nodebook-logo_1</title><g id="Layer_2" data-name="Layer 2"><g id="Layer_1-2" data-name="Layer 1"><path class="cls-1" d="M126,271.31"/><path class="cls-1" d="M208.38,121.1"/><path class="cls-1" d="M96.57,256.74"/><path class="cls-1" d="M232.82,48.34"/><path class="cls-2" d="M219.84,216.24V314l-89.56-42.77L129,235l61.37,29.66.34-62.54Z"/><path class="cls-3" d="M288.94,148.27l-69.1,68-29.13-14.09,69.42-68.62Z"/><path class="cls-4" d="M288.94,148.27l.25,97.54L219.84,314V216.24Z"/><path class="cls-2" d="M67.16,153.44l.21-98.31,97.16,46,.33,36.79-68-33.48-.5,62.76Z"/><path class="cls-1" d="M162.14,128.66"/><path class="cls-1" d="M16.46,95.82"/><polygon class="cls-4" points="220.47 46.14 164.53 101.16 164.86 137.96 220.4 83.33 220.47 46.14"/><path class="cls-1" d="M164.53,101.16"/><path class="cls-3" d="M164.53,101.16l-97.16-46L123.19.23l.23-.23.47.23,96.58,45.91"/><path class="cls-4" d="M96.83,104.47l-.5,62.76L138,124.74Z"/><path class="cls-2" d="M79.29,236l17.27,21.85L221.75,145.26l-16.39-21.49Z"/><polygon class="cls-4" points="260.79 68.76 205.36 123.77 221.75 145.26 276.38 88.99 260.79 68.76"/><polyline class="cls-3" points="260.79 68.76 205.36 123.77 79.29 235.99"/><polyline class="cls-3" points="79.29 235.99 134.72 180.98 260.79 68.76"/><path class="cls-5" d="M125.72,231.21"/><rect class="cls-6" width="326.58" height="314.03"/></g></g></svg>